<svg xmlns="http://www.w3.org/2000/svg" viewBox="0 0 480 320" fill="none">
  
  <rect width="480" height="320" fill="#050510"></rect>
  <defs>
    <radialGradient id="sb-bloom-cyan" cx="50%" cy="50%" r="50%">
      <stop offset="0%" stop-color="#22D3EE" stop-opacity="0.35"></stop>
      <stop offset="100%" stop-color="#22D3EE" stop-opacity="0"></stop>
    </radialGradient>
    <radialGradient id="sb-bloom-fuchsia" cx="50%" cy="50%" r="50%">
      <stop offset="0%" stop-color="#E879F9" stop-opacity="0.30"></stop>
      <stop offset="100%" stop-color="#E879F9" stop-opacity="0"></stop>
    </radialGradient>
    <radialGradient id="sb-bloom-emerald" cx="50%" cy="50%" r="50%">
      <stop offset="0%" stop-color="#34D399" stop-opacity="0.18"></stop>
      <stop offset="100%" stop-color="#34D399" stop-opacity="0"></stop>
    </radialGradient>
    <radialGradient id="sb-star" cx="50%" cy="50%" r="50%">
      <stop offset="0%" stop-color="#ffffff" stop-opacity="1"></stop>
      <stop offset="100%" stop-color="#ffffff" stop-opacity="0"></stop>
    </radialGradient>
  </defs>

  
  <circle cx="120" cy="80" r="200" fill="url(#sb-bloom-cyan)"></circle>
  <circle cx="380" cy="240" r="200" fill="url(#sb-bloom-fuchsia)"></circle>
  <circle cx="240" cy="280" r="160" fill="url(#sb-bloom-emerald)"></circle>

  
  <g>
    <circle cx="38" cy="44" r="1.6" fill="url(#sb-star)"></circle>
    <circle cx="92" cy="22" r="1.0" fill="url(#sb-star)"></circle>
    <circle cx="156" cy="60" r="1.4" fill="url(#sb-star)"></circle>
    <circle cx="218" cy="34" r="0.9" fill="url(#sb-star)"></circle>
    <circle cx="272" cy="88" r="1.3" fill="url(#sb-star)"></circle>
    <circle cx="334" cy="46" r="1.1" fill="url(#sb-star)"></circle>
    <circle cx="402" cy="20" r="1.5" fill="url(#sb-star)"></circle>
    <circle cx="446" cy="76" r="1.0" fill="url(#sb-star)"></circle>
    <circle cx="62" cy="120" r="1.2" fill="url(#sb-star)"></circle>
    <circle cx="124" cy="148" r="1.8" fill="url(#sb-star)"></circle>
    <circle cx="190" cy="118" r="1.0" fill="url(#sb-star)"></circle>
    <circle cx="252" cy="170" r="1.4" fill="url(#sb-star)"></circle>
    <circle cx="316" cy="132" r="0.9" fill="url(#sb-star)"></circle>
    <circle cx="382" cy="172" r="1.3" fill="url(#sb-star)"></circle>
    <circle cx="438" cy="138" r="1.0" fill="url(#sb-star)"></circle>
    <circle cx="46" cy="206" r="1.5" fill="url(#sb-star)"></circle>
    <circle cx="98" cy="244" r="0.9" fill="url(#sb-star)"></circle>
    <circle cx="170" cy="218" r="1.3" fill="url(#sb-star)"></circle>
    <circle cx="232" cy="266" r="1.0" fill="url(#sb-star)"></circle>
    <circle cx="294" cy="226" r="1.6" fill="url(#sb-star)"></circle>
    <circle cx="358" cy="278" r="1.1" fill="url(#sb-star)"></circle>
    <circle cx="418" cy="240" r="1.4" fill="url(#sb-star)"></circle>
    <circle cx="74" cy="288" r="1.2" fill="url(#sb-star)"></circle>
    <circle cx="208" cy="300" r="0.8" fill="url(#sb-star)"></circle>
    <circle cx="346" cy="304" r="1.0" fill="url(#sb-star)"></circle>
  </g>

  
  <g stroke="rgba(130,220,255,0.18)" stroke-width="0.8">
    <line x1="124" y1="148" x2="190" y2="118"></line>
    <line x1="190" y1="118" x2="252" y2="170"></line>
    <line x1="252" y1="170" x2="316" y2="132"></line>
  </g>
</svg>